<?xml version="1.0" encoding="utf-8"?>
<!-- Generator: Adobe Illustrator 26.0.1, SVG Export Plug-In . SVG Version: 6.00 Build 0)  -->
<svg version="1.1" id="icon-0" xmlns:svgjs="http://svgjs.dev/svgjs"
	 xmlns="http://www.w3.org/2000/svg" xmlns:xlink="http://www.w3.org/1999/xlink" x="0px" y="0px" viewBox="0 0 1000 186"
	 style="enable-background:new 0 0 1000 186;" xml:space="preserve">
<style type="text/css">
	.st0{fill:#FFFFFF;stroke:#000000;stroke-miterlimit:10;}
	.st1{fill-rule:evenodd;clip-rule:evenodd;fill:#FFFFFF;stroke:#17002E;stroke-miterlimit:10;}
	.st2{display:none;fill:none;stroke:#170000;stroke-miterlimit:10;}
</style>
<g id="tight-bounds" transform="matrix(1,0,0,1,0.24001016199565584,-0.016208348105749337)">
	<g>
		<g transform="matrix(1,0,0,1,259.03537479872034,30.328150589434273)">
			<g id="textblocktransform">
				<g>
					<g transform="matrix(1,0,0,1,0,0)">
						<path id="text-0" class="st0" d="M214.9,110.6c2.5,1.9,0.7,5.9-2.2,5.9c-1,0-1.8-0.3-2.4-1c-9.9-15.1-18.3,4.4-35,1.8
							c-0.1,0-0.2,0-0.3,0c-52.3,1.4-48.1-85,1.7-83.8c34.1-0.8,53.4,44.5,30.7,69.6l0,0L214.9,110.6z M175.3,111.1
							c46.1-5.8,0.9-15.8,15-23.2c0.4-0.2,0.9-0.3,1.4-0.2c0.2,0,0.3,0.1,0.5,0.2s0.3,0.3,0.5,0.4c25.1,31.8,26.7-52.2-15.3-48.8
							h-0.1c-41.7-0.8-45.9,71.9-2.1,71.6C175.1,111.2,175.2,111.2,175.3,111.1z M344.4,81.2c-1.8,8.9,3.6,27.3-0.9,36
							c-0.8,1.4-2.9,1.4-3.6-0.1c-7.5-15.8,4.5-60.5-7.1-75.2c-0.6-0.8-1.8-1-2.6-0.5c-14.5,8.5-13.2,32.8-21.7,44.4
							c-0.8,1.1-2.4,1.1-3.2,0.1c-9.5-11.4-7.2-36.7-21-44.9c-0.8-0.5-1.8-0.4-2.4,0.3c-12,12.1,0,64.1-8.3,76.6
							c-0.7,1.1-2.3,1.3-3.2,0.3c-3-3.5-0.1-15.6-0.9-19.5c0-0.2-0.1-0.4,0-0.6c2.4-22.1-5.5-55.2,12-64.4c0.4-0.2,1-0.3,1.5-0.1
							c13.1,3.8,18.1,21.2,21.8,35.5c0.5,2,3.4,2,3.9,0c3.9-14.3,10.5-31.7,23.4-35.5c0.5-0.1,1-0.1,1.4,0.1
							c13.6,6.9,9,26.9,11,47.1C344.4,80.8,344.4,81,344.4,81.2z M417.7,113c3.8-0.1,3.8,5.6,0.2,5.7c-5.5,0.5-7.7-2.1-9.5-5.1
							c-0.7-1.2-2.3-1.3-3.3-0.3c-4.3,4.8-10.7,6.7-17.7,6.7c-36.8,1.5-34.5-61.4,0.7-60.2c6.7-0.1,12.2,2.2,16,6.3
							c1.2,1.3,3.3,0.6,3.5-1.2c0.2-2.4,0.9-4.4,3.2-4.3C420.9,61.7,403,111.1,417.7,113z M405.8,98.5L405.8,98.5
							c1.4-12.8,0.2-33.9-17.5-33c-26.7-0.4-29,49.2-1.1,48.8C397.1,114.2,405.8,109,405.8,98.5z M463.9,57.3
							c18.7-1.9,22.4,29.9,3.3,29.8c-3.9,0.8-5-5-1.1-5.2c12.4,0.1,9.8-20.2-2.3-18.9c-25.4,3.6-12.2,38.9-20.1,55
							c-0.8,1.6-3,1.5-3.7-0.1c-2.6-5.9,0-23-0.8-26.8c-0.1-0.3-0.1-0.6,0-0.9c1.5-5.9-5.5-29.2-0.1-33.9c0.7-0.6,1.7-0.6,2.4-0.1
							c2.2,1.6,2.5,5.3,2.4,9.2c0,2.1,2.7,2.8,3.8,1C451,60.9,456.5,57.4,463.9,57.3z M499.7,119.5c-5.7,3.6-5.3-97.5,0.1-93.5
							c6-2.2,2.8,35.5,2.7,47.2c0,1.6,1.7,2.5,3.1,1.7c10.9-6.4,28.9-17.2,33.2-19.8c0.6-0.3,1.1-0.5,1.5-0.6s0.8-0.1,1.2,0.1
							c2.4,0.9,3.7,4.7,0.5,6.1c0,0-28.5,17.2-36.8,22.2c-1.2,0.7-1.3,2.5-0.2,3.3c9.4,7.2,47.6,28,35.8,32c-0.5,0.2-0.9,0.2-1.4,0
							c-0.6-0.2-1.3-0.6-2.2-1.2c0,0-22.9-16.7-31.2-22.7c-1.4-1-3.3,0-3.2,1.7C502.9,104,504.7,120.6,499.7,119.5L499.7,119.5z
							 M585.8,119.2c-40.7,1.9-40.3-63.4-0.3-62c0.1,0,0.3,0,0.4,0c15.2-3,38.5,22.2,23.2,31.6c-5.5,3.8-63.7-8.3-44.8,12.8
							c0.1,0.1,0.1,0.2,0.2,0.3c4.4,7.3,12.2,11.8,21.2,11.7c10.9,0.9,15.1-6.5,22-12.1c0.5-0.4,1.3-0.6,1.9-0.3
							c1.8,0.7,2.9,3.1,1.2,4.8C604.6,114.6,598,119.4,585.8,119.2L585.8,119.2z M563.5,84.4c8.2-0.3,35.4-0.6,42.6-1.2
							c1-0.1,1.8-0.9,1.9-2c0.3-11.1-11.2-18.8-22-18.4c-11.2-0.4-22.4,8.6-24.5,19.1C561.2,83.2,562.2,84.4,563.5,84.4z
							 M662.3,101.4c0.6-0.5,1.5-0.5,2.2,0c7,4.7-3.5,19.3-11.7,17.6c-19.6-1.7-15.7-30.4-15.3-46.4c0-1.1-0.8-2-1.9-2.1
							c-2.8-0.2-7.6-0.6-7.7-0.7c-2.8-0.6-2.4-6.5,1.2-5.5c17.4,6,5.3-17.1,14-25c0.8-0.7,1.9-0.7,2.7,0c4.8,4.4-1.1,15.6-1.3,24
							c0,1.1,0.9,2.1,2,2.1c4.3,0.1,7.3,0.2,9,0.2c4-0.2,3.6,5.9-0.4,5.4c-1.9,0.5-6.7-0.4-9.4,0c-1,0.1-1.8,1-1.8,2
							c-0.1,13.1-4.5,36.5,9.1,40.3c0.1,0,0.3,0.1,0.4,0.1C661.2,114,658.5,104.2,662.3,101.4z"/>
					</g>
				</g>
			</g>
		</g>
		<g>
			<g>
				<g>
					<path class="st1" d="M46.8,81.2c-12.6,28.4-4.4,70.3-39.8,85.7c-1.6,0.7-3.3-0.9-2.7-2.5C15.8,131,2.2,91.2,32.4,70.6l0.1-0.1
						c72-60.6,231.2-72.7,338.2-66.7c1.5,0.1,2.4,1.8,1.6,3.1C316.5,99.2,143-8.2,47.3,80.5C47.1,80.7,46.9,80.9,46.8,81.2z
						 M244.6,156.5C154.4,192,66.2,104,30.2,160.3c-1.1,1.8,0.9,3.9,2.7,2.8c50.7-29.5,120.4,73.4,213.8-3.2
						C248.5,158.5,246.8,155.6,244.6,156.5z M311.6,91.3c-108.2,58.3-226-18.8-264,37.5c-1.1,1.6,0.4,3.6,2.2,3.1
						c83.2-25,187.2,64.5,264.4-37.6C315.6,92.5,313.6,90.2,311.6,91.3z M332.5,52.7c-97.3,36.1-239.6-33-280.7,47.6
						c-0.9,1.7,1,3.6,2.7,2.7c76.9-38.2,202.7,33.2,280.2-46.9C336.2,54.5,334.6,52,332.5,52.7z"/>
				</g>
			</g>
		</g>
	</g>
	<path class="st2" d="M4.7,10.3h990.1c1.1,0,2,0.9,2,2v182c0,1.1-0.9,2-2,2H4.7c-1.1,0-2-0.9-2-2v-182C2.7,11.2,3.6,10.3,4.7,10.3z"
		/>
</g>
</svg>
